<?xml version="1.0" encoding="UTF-8"?>
<!-- Uploaded to: ICON Repo, www.svgrepo.com, Generator: ICON Repo Mixer Tools -->
<svg fill="#000000" width="800px" height="800px" version="1.1" viewBox="144 144 512 512" xmlns="http://www.w3.org/2000/svg">
 <g>
  <path d="m400 296.33c-57.164 0-103.67 46.508-103.67 103.67-0.003906 57.164 46.504 103.67 103.67 103.67 57.16 0 103.67-46.508 103.67-103.67 0-57.164-46.512-103.67-103.67-103.67z"/>
  <path d="m400 275.27c5.0977 0 9.2344-4.1367 9.2344-9.2344v-50.766c0-5.0977-4.1367-9.2344-9.2344-9.2344s-9.2344 4.1367-9.2344 9.2344v50.758c0 5.1055 4.1328 9.2422 9.2344 9.2422z"/>
  <path d="m400 524.73c-5.0977 0-9.2344 4.1367-9.2344 9.2344v50.758c0 5.0977 4.1367 9.2344 9.2344 9.2344s9.2344-4.1367 9.2344-9.2344v-50.758c0-5.0977-4.1367-9.2344-9.2344-9.2344z"/>
  <path d="m584.73 390.77h-50.766c-5.0977 0-9.2344 4.1367-9.2344 9.2344s4.1367 9.2344 9.2344 9.2344h50.758c5.0977 0 9.2344-4.1367 9.2344-9.2344 0.003907-5.1016-4.1289-9.2344-9.2266-9.2344z"/>
  <path d="m275.27 400c0-5.0977-4.1367-9.2344-9.2344-9.2344h-50.766c-5.0977 0-9.2344 4.1367-9.2344 9.2344s4.1367 9.2344 9.2344 9.2344h50.758c5.1055 0 9.2422-4.1367 9.2422-9.2344z"/>
  <path d="m494.73 314.5c2.3633 0 4.7266-0.90234 6.5312-2.707l35.891-35.891c3.6055-3.6055 3.6055-9.457 0-13.059-3.6055-3.6055-9.4531-3.6055-13.059 0l-35.891 35.891c-3.6055 3.6055-3.6055 9.457 0 13.059 1.8008 1.8047 4.1641 2.707 6.5273 2.707z"/>
  <path d="m298.74 488.2-35.891 35.891c-3.6055 3.6055-3.6055 9.457 0 13.059 1.8047 1.8047 4.168 2.707 6.5312 2.707 2.3633 0 4.7305-0.90234 6.5312-2.707l35.891-35.891c3.6055-3.6055 3.6055-9.457 0-13.059-3.6055-3.6094-9.4609-3.6094-13.062 0z"/>
  <path d="m501.27 488.2c-3.6055-3.6055-9.4531-3.6055-13.059 0s-3.6055 9.457 0 13.059l35.891 35.891c1.8047 1.8047 4.168 2.707 6.5312 2.707 2.3633 0 4.7266-0.90234 6.5312-2.707 3.6055-3.6055 3.6055-9.457 0-13.059z"/>
  <path d="m298.74 311.8c1.8047 1.8047 4.168 2.707 6.5312 2.707s4.7305-0.90234 6.5312-2.707c3.6055-3.6055 3.6055-9.457 0-13.059l-35.891-35.891c-3.6016-3.6055-9.457-3.6055-13.059 0-3.6055 3.6055-3.6055 9.457 0 13.059z"/>
 </g>
</svg>