<?xml version="1.0" encoding="UTF-8"?>
<!-- Uploaded to: ICON Repo, www.svgrepo.com, Generator: ICON Repo Mixer Tools -->
<svg fill="#000000" width="800px" height="800px" version="1.1" viewBox="144 144 512 512" xmlns="http://www.w3.org/2000/svg">
 <g>
  <path d="m598.32 584.35-3.3203-9.957v0.003906c-4.6875-14.113-13.707-26.391-25.77-35.09-12.062-8.6953-26.562-13.367-41.434-13.355h-255.6c-14.871-0.011719-29.367 4.6602-41.434 13.355-12.062 8.6992-21.082 20.977-25.77 35.09l-3.3203 9.957v-0.003906c-4.0039 12.004-1.9961 25.203 5.4023 35.469s19.285 16.348 31.938 16.344h321.96c12.656 0 24.539-6.082 31.934-16.344 7.3984-10.266 9.4102-23.465 5.4062-35.469z"/>
  <path d="m414.45 363.48c17.496 12.66 38.352 19.859 59.938 20.684 1.4141 0.089844 2.918 0.089844 4.3359 0.089844 35.379 0.0625 68.648-16.84 89.461-45.449 20.812-28.613 26.656-65.465 15.707-99.109-10.949-33.645-37.359-60.004-71.023-70.883-33.668-10.883-70.508-4.9688-99.078 15.902-28.57 20.871-45.406 54.168-45.273 89.551 0.12891 35.379 17.211 68.555 45.934 89.215z"/>
  <path d="m474.41 399.9c-0.33984-0.015626-0.68359 0-1.0156-0.023438-24.555-0.97656-48.273-9.1992-68.164-23.633-0.47266-0.33594-0.91406-0.70703-1.3789-1.0547l-50.641 135.02h79.801z"/>
 </g>
</svg>