<!DOCTYPE svg PUBLIC "-//W3C//DTD SVG 1.1//EN" "http://www.w3.org/Graphics/SVG/1.1/DTD/svg11.dtd">
<!-- Uploaded to: ICON Repo, www.svgrepo.com, Transformed by: ICON Repo Mixer Tools -->
<svg fill="#000000" width="800px" height="800px" version="1.1" viewBox="144 144 512 512" xmlns="http://www.w3.org/2000/svg" stroke="#000000" stroke-width="12.8">
<g id="SVGRepo_bgCarrier" stroke-width="0"/>
<g id="SVGRepo_tracerCarrier" stroke-linecap="round" stroke-linejoin="round" stroke="#CCCCCC" stroke-width="2.048"/>
<g id="SVGRepo_iconCarrier"> <path d="m263.98 156.21h272.06c29.641 0 56.59 12.121 76.102 31.648 19.527 19.527 31.648 46.461 31.648 76.102v272.06c0 29.641-12.121 56.59-31.648 76.102-19.527 19.527-46.461 31.648-76.102 31.648h-272.06c-29.641 0-56.59-12.121-76.102-31.648-19.527-19.527-31.648-46.461-31.648-76.102v-272.06c0-29.641 12.121-56.59 31.648-76.102 19.527-19.527 46.461-31.648 76.102-31.648zm102.75 294.87-110.84 110.84c-4.9258 4.9141-12.895 4.9141-17.805 0-4.9141-4.9141-4.9141-12.895 0-17.805l110.84-110.84h-75.934c-6.9531 0-12.59-5.6367-12.59-12.59s5.6367-12.59 12.59-12.59h106.34c6.9531 0 12.59 5.6367 12.59 12.59v106.34c0 6.9531-5.6367 12.59-12.59 12.59s-12.59-5.6367-12.59-12.59v-75.934zm66.578-102.19 110.84-110.84c4.9258-4.9141 12.895-4.9141 17.805 0 4.9141 4.9141 4.9141 12.895 0 17.805l-110.84 110.84h75.934c6.9531 0 12.59 5.6367 12.59 12.59s-5.6367 12.59-12.59 12.59h-106.34c-6.9531 0-12.59-5.6367-12.59-12.59v-106.34c0-6.9531 5.6367-12.59 12.59-12.59 6.9531 0 12.59 5.6367 12.59 12.59v75.934zm102.75-167.5h-272.06c-22.688 0-43.332 9.2969-58.297 24.258-14.965 14.977-24.258 35.609-24.258 58.297v272.06c0 22.703 9.2969 43.332 24.258 58.297 14.977 14.977 35.609 24.258 58.297 24.258h272.06c22.703 0 43.332-9.2969 58.297-24.258 14.977-14.977 24.258-35.609 24.258-58.297v-272.06c0-22.703-9.2969-43.332-24.258-58.297-14.977-14.977-35.609-24.258-58.297-24.258z"/> </g>
</svg>