<?xml version="1.0" encoding="UTF-8"?>
<!-- Uploaded to: ICON Repo, www.svgrepo.com, Generator: ICON Repo Mixer Tools -->
<svg fill="#000000" width="800px" height="800px" version="1.1" viewBox="144 144 512 512" xmlns="http://www.w3.org/2000/svg">
 <g>
  <path d="m357.82 400.83c3.5312 0 7.1094 0.24609 10.691 0.74609 8.207-10.535 18.359-19.145 29.754-25.492-6.6797-22.176-25.926-38.938-48.668-42.707-32.938-5.4609-65.082 17.531-70.543 50.48-3.0117 18.188 2.168 36.215 14.227 50.078 14.5-20.016 37.992-33.105 64.539-33.105z"/>
  <path d="m566.22 458.73c-4.1602-1.6133-6.7656-5.7734-6.3867-10.219 0.082031-0.92188 0.14453-1.8477 0.14453-2.793 0-18.043-14.676-32.719-32.719-32.719-3.5 0-7.0117 0.58594-10.438 1.7383-3.9258 1.3203-8.2383 0.10156-10.902-3.0586-14.922-17.734-36.738-27.906-59.844-27.906-11.199 0-22.07 2.4023-31.988 6.8516-0.23047 0.10547-0.45703 0.22266-0.69922 0.3125-12.801 5.8906-23.973 15.219-32.129 27.27-2.3125 3.4141-6.4648 5.0742-10.504 4.1797-4.3477-0.96875-8.6992-1.4492-12.938-1.4492-32.875 0-59.625 26.746-59.625 59.621 0 33.52 26.746 60.785 59.625 60.785h192.78c24.312 0 43.363-18.539 43.363-42.203 0.007813-18.023-10.883-33.887-27.738-40.41z"/>
  <path d="m417.21 345.49 27.918-19.98c4.0391-2.8906 4.9727-8.5078 2.082-12.551-2.8984-4.0469-8.5195-4.9727-12.551-2.082l-27.918 19.98c-4.0391 2.8906-4.9727 8.5078-2.082 12.551 2.9062 4.0703 8.5508 4.9414 12.551 2.082z"/>
  <path d="m259.37 436.32-27.922 19.98c-4.0391 2.8906-4.9727 8.5078-2.082 12.551 2.9102 4.0703 8.5547 4.9492 12.551 2.082l27.922-19.98c4.0391-2.8906 4.9727-8.5078 2.082-12.551-2.8984-4.043-8.5195-4.9766-12.551-2.082z"/>
  <path d="m290.79 324.54c4.0391-2.8906 4.9727-8.5078 2.082-12.551l-19.98-27.922c-2.8906-4.0391-8.5156-4.9727-12.551-2.082-4.0391 2.8906-4.9688 8.5078-2.082 12.551l19.98 27.922c2.9141 4.0703 8.5508 4.9492 12.551 2.082z"/>
  <path d="m257.77 377.56c0.8125-4.9023-2.5039-9.5312-7.4062-10.348l-33.871-5.6133c-4.9062-0.80078-9.5312 2.5039-10.348 7.4062-0.8125 4.9023 2.5039 9.5312 7.4062 10.348l33.871 5.6133c4.7891 0.78516 9.5273-2.457 10.348-7.4062z"/>
  <path d="m351.63 310.39c4.793 0.79688 9.5391-2.4531 10.348-7.4062l5.6133-33.871c0.8125-4.9023-2.5039-9.5312-7.4062-10.348-4.9258-0.8125-9.5391 2.5039-10.348 7.4062l-5.6133 33.871c-0.8125 4.9023 2.5078 9.5352 7.4062 10.348z"/>
 </g>
</svg>