<!DOCTYPE svg PUBLIC "-//W3C//DTD SVG 1.1//EN" "http://www.w3.org/Graphics/SVG/1.1/DTD/svg11.dtd">
<!-- Uploaded to: ICON Repo, www.svgrepo.com, Transformed by: ICON Repo Mixer Tools -->
<svg fill="#f02457" width="800px" height="800px" version="1.1" viewBox="144 144 512 512" xmlns="http://www.w3.org/2000/svg" stroke="#f02457">
<g id="SVGRepo_bgCarrier" stroke-width="0"/>
<g id="SVGRepo_tracerCarrier" stroke-linecap="round" stroke-linejoin="round"/>
<g id="SVGRepo_iconCarrier"> <g> <path d="m400 348.71c-2.0898 0-4.0938-0.82812-5.5703-2.3047-1.4727-1.4766-2.3047-3.4805-2.3047-5.5664v-17.676c0-4.3477 3.5273-7.8711 7.875-7.8711s7.8711 3.5234 7.8711 7.8711v17.676c0 2.0859-0.82812 4.0898-2.3047 5.5664-1.4766 1.4766-3.4805 2.3047-5.5664 2.3047z"/> <path d="m400 309.95c-2.0898 0.003907-4.0938-0.82812-5.5703-2.3047-1.4727-1.4766-2.3047-3.4766-2.3047-5.5664v-87.484c0-4.3477 3.5273-7.8711 7.875-7.8711s7.8711 3.5234 7.8711 7.8711v87.484c0 2.0898-0.82812 4.0898-2.3047 5.5664-1.4766 1.4766-3.4805 2.3086-5.5664 2.3047z"/> <path d="m400 202.7c-2.0898 0-4.0938-0.82812-5.5703-2.3047-1.4727-1.4766-2.3047-3.4805-2.3047-5.5703v-7.1055c0-4.3477 3.5273-7.8711 7.875-7.8711s7.8711 3.5234 7.8711 7.8711v7.1055c0 2.0898-0.82812 4.0938-2.3047 5.5703-1.4766 1.4766-3.4805 2.3047-5.5664 2.3047z"/> <path d="m340.84 407.87h-17.676c-4.3477 0-7.8711-3.5234-7.8711-7.8711s3.5234-7.875 7.8711-7.875h17.676c4.3477 0 7.8711 3.5273 7.8711 7.875s-3.5234 7.8711-7.8711 7.8711z"/> <path d="m302.07 407.87h-87.484c-4.3477 0-7.8711-3.5234-7.8711-7.8711s3.5234-7.875 7.8711-7.875h87.484c4.3477 0 7.8711 3.5273 7.8711 7.875s-3.5234 7.8711-7.8711 7.8711z"/> <path d="m194.83 407.87h-7.1055c-4.3477 0-7.8711-3.5234-7.8711-7.8711s3.5234-7.875 7.8711-7.875h7.1055c4.3438 0 7.8711 3.5273 7.8711 7.875s-3.5273 7.8711-7.8711 7.8711z"/> <path d="m400 484.7c-2.0898 0-4.0938-0.82812-5.5703-2.3047-1.4727-1.4766-2.3047-3.4805-2.3047-5.5664v-17.676c0-4.3477 3.5273-7.8711 7.875-7.8711s7.8711 3.5234 7.8711 7.8711v17.676c0 2.0859-0.82812 4.0898-2.3047 5.5664-1.4766 1.4766-3.4805 2.3047-5.5664 2.3047z"/> <path d="m400 593.28c-2.0898 0-4.0938-0.82812-5.5703-2.3047-1.4727-1.4766-2.3047-3.4805-2.3047-5.5664v-87.484c0-4.3477 3.5273-7.8711 7.875-7.8711s7.8711 3.5234 7.8711 7.8711v87.484c0 2.0859-0.82812 4.0898-2.3047 5.5664-1.4766 1.4766-3.4805 2.3047-5.5664 2.3047z"/> <path d="m400 620.14c-2.0898 0.003907-4.0938-0.82812-5.5703-2.3047-1.4727-1.4766-2.3047-3.4766-2.3047-5.5664v-7.1055c0-4.3477 3.5273-7.8711 7.875-7.8711s7.8711 3.5234 7.8711 7.8711v7.1055c0 2.0898-0.82812 4.0898-2.3047 5.5664-1.4766 1.4766-3.4805 2.3086-5.5664 2.3047z"/> <path d="m476.83 407.87h-17.676c-4.3477 0-7.8711-3.5234-7.8711-7.8711s3.5234-7.875 7.8711-7.875h17.676c4.3477 0 7.8711 3.5273 7.8711 7.875s-3.5234 7.8711-7.8711 7.8711z"/> <path d="m585.41 407.87h-87.484c-4.3477 0-7.8711-3.5234-7.8711-7.8711s3.5234-7.875 7.8711-7.875h87.484c4.3477 0 7.8711 3.5273 7.8711 7.875s-3.5234 7.8711-7.8711 7.8711z"/> <path d="m612.27 407.87h-7.1016c-4.3477 0-7.875-3.5234-7.875-7.8711s3.5273-7.875 7.875-7.875h7.1016c4.3477 0 7.8711 3.5273 7.8711 7.875s-3.5234 7.8711-7.8711 7.8711z"/> <path d="m443.07 367.01c-3.1836 0-6.0508-1.918-7.2695-4.8594s-0.54688-6.3281 1.707-8.5781l13.547-13.547h-0.003907c3.0742-3.0742 8.0586-3.0742 11.133 0 3.0742 3.0742 3.0742 8.0586 0 11.133l-13.547 13.547c-1.4727 1.4766-3.4766 2.3086-5.5664 2.3047z"/> <path d="m472.16 337.92c-3.1836 0-6.0508-1.918-7.2695-4.8594s-0.54688-6.3281 1.707-8.5781l59.84-59.844h-0.003906c3.0742-3.0742 8.0586-3.0742 11.133 0 3.0742 3.0742 3.0742 8.0586 0 11.133l-59.84 59.844c-1.4727 1.4766-3.4766 2.3086-5.5664 2.3047z"/> <path d="m545.98 264.1c-3.1836 0-6.0547-1.918-7.2734-4.8594-1.2148-2.9453-0.54297-6.3281 1.707-8.582l5.0273-5.0234h0.003906c3.0781-3.043 8.0391-3.0273 11.102 0.035156s3.0742 8.0234 0.027343 11.105l-5.0273 5.0234c-1.4766 1.4766-3.4766 2.3047-5.5664 2.3008z"/> <path d="m359.14 364.8c-2.0898 0.003906-4.0938-0.82812-5.5664-2.3047l-13.547-13.547c-3.0742-3.0742-3.0742-8.0586 0-11.133 3.0742-3.0742 8.0586-3.0742 11.133 0l13.547 13.547c2.25 2.25 2.9219 5.6367 1.7031 8.5781s-4.0859 4.8594-7.2695 4.8594z"/> <path d="m330.05 335.71c-2.0898 0.003906-4.0938-0.82813-5.5664-2.3047l-59.848-59.848c-3.0742-3.0742-3.0742-8.0586 0-11.133s8.0586-3.0742 11.133 0l59.848 59.848c2.25 2.25 2.9219 5.6367 1.7031 8.5781-1.2188 2.9414-4.0859 4.8594-7.2695 4.8594z"/> <path d="m256.23 261.89c-2.0859 0.003906-4.0898-0.82422-5.5664-2.3008l-5.0273-5.0234c-3.0469-3.0781-3.0352-8.0391 0.027344-11.105 3.0625-3.0625 8.0234-3.0781 11.105-0.035157l5.0273 5.0234c2.25 2.2539 2.9258 5.6406 1.707 8.582s-4.0898 4.8594-7.2734 4.8594z"/> <path d="m343.38 462.27c-3.1836 0-6.0508-1.918-7.2695-4.8594-1.2188-2.9414-0.54688-6.3242 1.7031-8.5781l13.547-13.547v0.003907c3.0742-3.0742 8.0586-3.0742 11.133 0 3.0742 3.0742 3.0742 8.0586 0 11.129l-13.547 13.547c-1.4727 1.4805-3.4766 2.3086-5.5664 2.3047z"/> <path d="m268 537.66c-3.1836 0-6.0547-1.918-7.2695-4.8594-1.2188-2.9414-0.54687-6.3281 1.7031-8.5781l59.84-59.844c1.4727-1.5039 3.4805-2.3555 5.582-2.3633 2.1016-0.011719 4.1211 0.81641 5.6094 2.3047 1.4844 1.4844 2.3164 3.5039 2.3047 5.6055-0.011719 2.1016-0.86328 4.1133-2.3633 5.582l-59.84 59.844c-1.4766 1.4805-3.4766 2.3086-5.5664 2.3086z"/> <path d="m248.99 556.66c-3.1836-0.003906-6.0547-1.9219-7.2734-4.8633-1.2188-2.9414-0.54297-6.3281 1.707-8.5781l5.0273-5.0234v-0.003907c3.082-3.0469 8.0469-3.0312 11.109 0.035157 3.0625 3.0625 3.0742 8.0273 0.023438 11.105l-5.0273 5.0234c-1.4766 1.4766-3.4805 2.3047-5.5664 2.3047z"/> <path d="m454.4 464.49c-2.0859 0.003907-4.0898-0.82812-5.5664-2.3047l-13.547-13.547h0.003907c-3.0742-3.0742-3.0742-8.0586 0-11.133 3.0742-3.0703 8.0586-3.0703 11.129 0l13.547 13.547c2.25 2.25 2.9258 5.6367 1.707 8.5781s-4.0898 4.8594-7.2734 4.8594z"/> <path d="m529.79 539.88c-2.0859 0.003906-4.0898-0.82812-5.5625-2.3047l-59.848-59.848c-3.0742-3.0742-3.0742-8.0586 0-11.133 3.0742-3.0742 8.0547-3.0742 11.129 0l59.848 59.848c2.25 2.2539 2.9258 5.6367 1.707 8.5781s-4.0898 4.8594-7.2734 4.8594z"/> <path d="m548.79 558.87c-2.0859 0.003906-4.0898-0.82422-5.5625-2.3008l-5.0273-5.0234c-3.0508-3.0781-3.0391-8.043 0.023437-11.109 3.0625-3.0625 8.0273-3.0781 11.105-0.03125l5.0273 5.0234c2.2539 2.2539 2.9258 5.6406 1.707 8.582-1.2188 2.9414-4.0859 4.8594-7.2695 4.8594z"/> <path d="m423.09 351.25c-2.6797 0-5.168-1.3633-6.6172-3.6172-1.4453-2.25-1.6523-5.082-0.54297-7.5195l7.0898-15.539c1.8047-3.957 6.4727-5.7031 10.43-3.8984 3.957 1.8047 5.7031 6.4727 3.8984 10.43l-7.0898 15.539 0.003906 0.003907c-1.2852 2.8047-4.0859 4.6055-7.1719 4.6016z"/> <path d="m439.26 315.8c-2.6758-0.007812-5.1641-1.3711-6.6094-3.6211-1.4492-2.2539-1.6523-5.0859-0.54688-7.5234l25.867-56.719c1.8047-3.957 6.4766-5.6992 10.434-3.8945 3.957 1.8047 5.7031 6.4727 3.8984 10.43l-25.867 56.719h-0.003906c-1.2812 2.8086-4.0859 4.6094-7.1719 4.6094z"/> <path d="m376.29 351.51c-3.2852 0-6.2266-2.043-7.3711-5.1211l-5.9727-16.004c-0.74609-1.957-0.67969-4.1328 0.18359-6.043 0.86328-1.9102 2.4531-3.3945 4.418-4.1289 1.9648-0.73047 4.1367-0.65234 6.043 0.22656 1.9023 0.875 3.3789 2.4727 4.0977 4.4414l5.9727 16 0.003906 0.003906c0.89844 2.4141 0.55859 5.1211-0.91016 7.2383-1.4688 2.1211-3.8828 3.3867-6.4648 3.3867z"/> <path d="m362.65 315c-3.2852 0-6.2227-2.0391-7.3711-5.1172l-21.809-58.395h-0.003906c-1.5195-4.0742 0.54688-8.6094 4.6172-10.129 4.0742-1.5234 8.6055 0.54297 10.129 4.6172l21.809 58.395c0.90234 2.4141 0.5625 5.1211-0.90625 7.2422-1.4688 2.1211-3.8828 3.3867-6.4648 3.3867z"/> <path d="m343.37 384.78c-1.125 0-2.2344-0.24219-3.2578-0.71094l-15.543-7.0898c-1.9023-0.86328-3.3789-2.4492-4.1094-4.4062-0.73047-1.957-0.65234-4.1211 0.21484-6.0195 1.8047-3.957 6.4727-5.6992 10.426-3.8945l15.543 7.0898h0.003907c3.3711 1.5352 5.2148 5.2148 4.4258 8.8359-0.78906 3.6211-3.9961 6.1992-7.7031 6.1953z"/> <path d="m307.92 368.61c-1.125 0-2.2383-0.24219-3.2617-0.71094l-56.719-25.867c-1.8984-0.86719-3.375-2.4531-4.1055-4.4062-0.73047-1.957-0.65234-4.125 0.21484-6.0234 1.8047-3.9531 6.4727-5.6953 10.426-3.8945l56.719 25.867v0.003907c3.3711 1.5352 5.2148 5.2148 4.4258 8.8359-0.78516 3.6211-3.9961 6.2031-7.6992 6.1953z"/> <path d="m327.63 437.55c-3.8086-0.003907-7.0664-2.7305-7.7461-6.4766-0.67578-3.7461 1.4258-7.4414 4.9922-8.7734l16.004-5.9766h0.003906c4.0664-1.4961 8.5742 0.57812 10.09 4.6367s-0.53516 8.5781-4.5859 10.113l-16.004 5.9766h-0.003906c-0.87891 0.33203-1.8125 0.5-2.75 0.5z"/> <path d="m248.73 467.03c-3.8086-0.003906-7.0664-2.7305-7.7461-6.4766-0.67578-3.75 1.4258-7.4453 4.9961-8.7773l58.395-21.812c4.0664-1.4961 8.5781 0.57812 10.09 4.6367 1.5156 4.0586-0.53516 8.582-4.5859 10.113l-58.395 21.812v0.003906c-0.88281 0.32812-1.8125 0.49609-2.7539 0.5z"/> <path d="m369.81 480.03c-2.6758-0.003906-5.168-1.3672-6.6133-3.6211-1.4492-2.25-1.6523-5.082-0.54297-7.5195l7.0898-15.539h-0.003907c1.8047-3.957 6.4766-5.7031 10.434-3.8984s5.7031 6.4727 3.8984 10.43l-7.0898 15.539v0.003906c-1.2812 2.8047-4.0859 4.6055-7.1719 4.6055z"/> <path d="m334.86 556.67c-2.6758-0.007813-5.168-1.3711-6.6133-3.625-1.4453-2.25-1.6523-5.082-0.54297-7.5195l25.867-56.719c0.86719-1.8984 2.4531-3.3789 4.4102-4.1094 1.9531-0.73047 4.1211-0.65625 6.0195 0.21094 3.957 1.8047 5.7031 6.4766 3.8984 10.434l-25.867 56.719c-1.2812 2.8086-4.0859 4.6094-7.1719 4.6094z"/> <path d="m432.43 479.74c-1.957 0.73047-4.125 0.65625-6.0234-0.21094-1.8984-0.86719-3.375-2.457-4.1016-4.4141l-5.9727-16c-0.74609-1.9609-0.67969-4.1367 0.18359-6.043 0.86328-1.9102 2.4531-3.3984 4.418-4.1289 1.9609-0.73437 4.1367-0.65234 6.043 0.22266 1.9023 0.875 3.3789 2.4766 4.0977 4.4414l5.9727 16v0.003906c0.73047 1.957 0.65625 4.1211-0.21094 6.0195-0.86719 1.9023-2.4531 3.3789-4.4062 4.1094z"/> <path d="m459.15 559.14c-3.2852 0-6.2227-2.0391-7.3711-5.1172l-21.809-58.395c-0.74609-1.9609-0.67969-4.1367 0.18359-6.0469 0.86328-1.9062 2.4531-3.3945 4.4141-4.1289 1.9648-0.73438 4.1406-0.65234 6.043 0.22266 1.9062 0.875 3.3828 2.4727 4.1016 4.4414l21.809 58.395h0.003906c0.90234 2.4141 0.5625 5.1211-0.91016 7.2422-1.4688 2.1172-3.8828 3.3867-6.4648 3.3867z"/> <path d="m472.15 438.05c-1.125 0-2.2344-0.24219-3.2578-0.71094l-15.543-7.0898v0.003906c-1.9023-0.86719-3.3789-2.4531-4.1094-4.4102-0.73047-1.9531-0.65234-4.1211 0.21484-6.0195 1.8047-3.9531 6.4727-5.6992 10.426-3.8945l15.543 7.0898h0.003907c3.3711 1.5352 5.2148 5.2148 4.4258 8.8359-0.78906 3.6211-3.9961 6.2031-7.7031 6.1953z"/> <path d="m548.78 473c-1.125 0-2.2344-0.24219-3.2578-0.71094l-56.719-25.867v-0.003906c-1.8984-0.86328-3.375-2.4492-4.1055-4.4062s-0.65625-4.1211 0.21094-6.0195c1.8047-3.957 6.4727-5.6992 10.43-3.8945l56.719 25.867c3.3711 1.5391 5.2148 5.2188 4.4258 8.8398s-3.9961 6.1992-7.7031 6.1953z"/> <path d="m456.36 384.17c-3.8086 0-7.0664-2.7266-7.7422-6.4766-0.67578-3.7461 1.4258-7.4414 4.9883-8.7734l16.004-5.9766h0.003907c4.0664-1.4961 8.5781 0.57812 10.094 4.6367 1.5117 4.0586-0.53906 8.582-4.5898 10.113l-16.004 5.9766v0.003906c-0.88281 0.32812-1.8125 0.49609-2.7539 0.49609z"/> <path d="m492.87 370.53c-3.8086 0-7.0703-2.7266-7.7461-6.4766-0.67578-3.7461 1.4258-7.4414 4.9961-8.7734l58.395-21.812c4.0664-1.4961 8.5742 0.57422 10.09 4.6367 1.5156 4.0586-0.53516 8.5781-4.5859 10.113l-58.395 21.812c-0.88281 0.33203-1.8125 0.5-2.7539 0.5z"/> <path d="m424.28 438.53c-2.4102 1.7852-5.6211 2.0547-8.2969 0.69922l-0.38672-0.19531-15.598-8.6133-15.73 8.6875c-2.5977 1.4336-5.7773 1.2969-8.2422-0.35156l-0.46094-0.30859c-2.4766-1.6562-3.8164-4.5625-3.4648-7.5195l0.0625-0.52344 3.0664-18.809-13.113-13.438c-1.9844-2.0312-2.7305-4.9688-1.9531-7.7031l0.17578-0.61719c0.98438-2.9531 3.543-5.1016 6.6172-5.5664l17.59-2.6836 7.9883-17c1.2773-2.7188 3.9805-4.4805 6.9805-4.5547l0.55469-0.011719h0.003907c2.9844-0.074219 5.7578 1.5391 7.1719 4.1719l0.26172 0.48828 7.9414 16.91 17.797 2.7148c2.8047 0.42969 5.168 2.3242 6.1953 4.9727l0.21875 0.55859c1.0039 2.957 0.26172 6.2266-1.9141 8.4648l-12.977 13.297 3.0898 18.938h-0.003906c0.48047 2.9297-0.72266 5.8828-3.1094 7.6484zm-24.441-26.008 10 5.3477-1.8438-11.32 2.8516-3.2383 5.5273-5.6562-11.379-1.7383-4.9961-10.188-4.6445 9.8789-4.3984 0.92578-7.332 1.1211 8.25 8.4492-1.7148 11.766z"/> </g> </g>
</svg>