<?xml version="1.0" encoding="UTF-8"?>
<!-- Uploaded to: ICON Repo, www.svgrepo.com, Generator: ICON Repo Mixer Tools -->
<svg width="800px" height="800px" version="1.1" viewBox="144 144 512 512" xmlns="http://www.w3.org/2000/svg">
 <defs>
  <clipPath id="a">
   <path d="m148.09 148.09h503.81v503.81h-503.81z"/>
  </clipPath>
 </defs>
 <g clip-path="url(#a)">
  <path d="m400 651.9c-56.762 0-109.32-18.852-151.47-50.605-3.8125-2.8711-6.3281-7.1367-6.9922-11.863-0.66406-4.7266 0.57422-9.5234 3.4453-13.332 2.8711-3.8125 7.1367-6.3281 11.863-6.9961 4.7227-0.66406 9.5195 0.57422 13.332 3.4453 36.145 27.234 81.008 43.367 129.82 43.367 119.46 0 215.92-96.457 215.92-215.92 0-119.46-96.457-215.92-215.92-215.92-119.46 0-215.92 96.453-215.92 215.92 0 45.816 14.215 88.113 38.48 123.04 2.7227 3.9219 3.7773 8.7656 2.9258 13.469-0.84766 4.6992-3.5352 8.8672-7.4609 11.586-3.9141 2.7188-8.75 3.7695-13.441 2.9258-4.6914-0.83984-8.8555-3.5117-11.578-7.4219-28.297-40.727-44.914-90.32-44.914-143.59 0-138.91 113-251.91 251.91-251.91s251.9 113 251.9 251.91-112.99 251.9-251.9 251.9z"/>
 </g>
 <path d="m400 255.6c-4.7734 0-9.3477 1.8945-12.723 5.2695s-5.2695 7.9492-5.2695 12.723v208.47l-59.25-59.25v-0.003906c-3.375-3.3711-7.9531-5.2656-12.723-5.2656-4.7734 0-9.3477 1.8945-12.723 5.2656-3.375 3.375-5.2695 7.9531-5.2695 12.723 0 4.7734 1.8945 9.3477 5.2695 12.723l89.965 89.965c3.375 3.375 7.9531 5.2695 12.723 5.2695 4.7734 0 9.3477-1.8945 12.723-5.2695l89.965-89.965c3.375-3.375 5.2695-7.9492 5.2695-12.723 0-4.7695-1.8945-9.3477-5.2695-12.723-3.375-3.3711-7.9492-5.2656-12.723-5.2656-4.7695 0-9.3477 1.8945-12.719 5.2656l-59.25 59.254v-208.47c0-4.7734-1.8945-9.3477-5.2695-12.723s-7.9531-5.2695-12.723-5.2695z"/>
</svg>