<?xml version="1.0" encoding="UTF-8"?>
<!-- Uploaded to: ICON Repo, www.svgrepo.com, Generator: ICON Repo Mixer Tools -->
<svg fill="#000000" width="800px" height="800px" version="1.1" viewBox="144 144 512 512" xmlns="http://www.w3.org/2000/svg">
 <path d="m335.21 258.3c-52.629 0-94.504 41.426-103.12 93.602-31.551 16.246-52.504 50.949-52.504 90.082 0 53.613 39.824 99.711 92.043 99.711h178.03c50.508 0 89.418-43.125 91.914-94.465h39.488c4.3477 0 7.8711 3.5234 7.8711 7.8711 0 4.3477-3.5234 7.875-7.8711 7.875h-14.168c-8.6953 0-15.746 7.0469-15.746 15.742s7.0508 15.742 15.746 15.742h14.168c21.738 0 39.359-17.621 39.359-39.359 0-21.738-17.621-39.359-39.359-39.359h-42.582c-1.3672-5.4375-3.1445-10.699-5.3047-15.742h47.887c21.738 0 39.359-17.625 39.359-39.363 0-21.734-17.621-39.359-39.359-39.359h-23.617c-8.6953 0-15.742 7.0508-15.742 15.746 0 8.6953 7.0469 15.742 15.742 15.742h23.617c4.3477 0 7.8711 3.5273 7.8711 7.8711 0 4.3477-3.5234 7.875-7.8711 7.875h-69.148c-2.9062-2.8906-5.9883-5.582-9.2305-8.0625-5.0352-33.086-31.488-60.164-65.738-60.164-6.3945 0-12.574 0.97266-18.41 2.7773-18.906-26.863-48.914-44.762-83.32-44.762z"/>
</svg>