<?xml version="1.0" encoding="UTF-8"?>
<!-- Uploaded to: ICON Repo, www.svgrepo.com, Generator: ICON Repo Mixer Tools -->
<svg width="800px" height="800px" version="1.1" viewBox="144 144 512 512" xmlns="http://www.w3.org/2000/svg">
 <defs>
  <clipPath id="a">
   <path d="m148.09 148.09h503.81v503.81h-503.81z"/>
  </clipPath>
 </defs>
 <g clip-path="url(#a)">
  <path d="m497.96 148.09h-195.93c-40.828 0-79.984 16.219-108.85 45.09-28.871 28.867-45.09 68.023-45.09 108.85v195.93c0 40.828 16.219 79.984 45.09 108.86 28.867 28.867 68.023 45.086 108.85 45.086h195.93c40.828 0 79.984-16.219 108.86-45.086 28.867-28.871 45.086-68.027 45.086-108.86v-195.93c0-40.828-16.219-79.984-45.086-108.85-28.871-28.871-68.027-45.09-108.86-45.09zm125.95 349.87c0 33.406-13.27 65.441-36.891 89.062-23.621 23.621-55.656 36.891-89.062 36.891h-195.93c-33.402 0-65.441-13.27-89.062-36.891-23.621-23.621-36.891-55.656-36.891-89.062v-195.93c0-33.402 13.27-65.441 36.891-89.062s55.66-36.891 89.062-36.891h195.93c33.406 0 65.441 13.27 89.062 36.891 23.621 23.621 36.891 55.66 36.891 89.062z"/>
 </g>
 <path d="m545.26 247.18c-1.6797-0.71484-3.4883-1.0977-5.3164-1.1172h-55.98c-7.7266 0-13.992 6.2656-13.992 13.992 0 7.7305 6.2656 13.996 13.992 13.996h22.25l-232.17 232.17v-22.254c0-7.7266-6.2656-13.992-13.996-13.992-7.7266 0-13.992 6.2656-13.992 13.992v55.98c0 3.7109 1.4727 7.2734 4.0977 9.8945 2.625 2.625 6.1836 4.1016 9.8945 4.1016h55.98c7.7266 0 13.992-6.2656 13.992-13.996 0-7.7305-6.2656-13.996-13.992-13.996h-22.254l232.17-232.17v22.254c0 7.7266 6.2656 13.992 13.996 13.992 7.7305 0 13.996-6.2656 13.996-13.992v-55.98c-0.023437-1.8281-0.40234-3.6367-1.1211-5.3164-1.418-3.4219-4.1367-6.1367-7.5586-7.5586z"/>
</svg>