<?xml version="1.0" encoding="UTF-8"?>
<!-- Uploaded to: ICON Repo, www.svgrepo.com, Generator: ICON Repo Mixer Tools -->
<svg fill="#000000" width="800px" height="800px" version="1.1" viewBox="144 144 512 512" xmlns="http://www.w3.org/2000/svg">
 <path d="m617.14 164.33c-10.738-8.4844-24.883-11.32-38.062-7.6367l-232.79 62.449c-9.332 2.418-17.586 7.8828-23.449 15.531-5.8672 7.6445-9.0078 17.035-8.9258 26.672v257c-17.191-13.227-38.332-20.301-60.023-20.082-48.473 0-87.941 32.887-87.941 73.332 0 40.445 39.465 73.293 87.941 73.293 49.176 0 87.715-31.578 87.941-71.965v-0.38672-224.82l263.66-70.641-1.3711 159.73c-17.098-13.883-38.477-21.418-60.5-21.328-48.488 0-87.938 32.887-87.938 73.293s39.441 73.332 87.938 73.332c49.316 0 87.941-31.195 87.941-71.008 0-0.41797-0.035156-0.81641-0.035156-1.2188 0-0.21094 0.035156-0.41406 0.035156-0.62891l2.5117-289.97c0.26953-13.691-6.0273-26.684-16.938-34.953z" fill-rule="evenodd"/>
</svg>