<?xml version="1.0" encoding="UTF-8"?>
<!-- Uploaded to: ICON Repo, www.svgrepo.com, Generator: ICON Repo Mixer Tools -->
<svg fill="#000000" width="800px" height="800px" version="1.1" viewBox="144 144 512 512" xmlns="http://www.w3.org/2000/svg">
 <path d="m429.69 192.02c-4.3516-0.21875-8.9219 1.2227-12.453 3.9961l-123.18 98.617h-94.836c-8.9531 0.03125-16.203 7.3164-16.234 16.266v178.66c0.03125 8.9531 7.2852 16.203 16.234 16.234l94.836 0.003906 123.18 98.707c10.707 8.3828 26.355 0.77734 26.32-12.824v-382.87c0-11.398-6.6133-16.426-13.867-16.789zm38.809 32.844c-3.0938 8.1836 1.0742 17.305 9.2852 20.324 72.605 26.938 107.75 90.523 107.75 154.92 0 64.398-35.141 128.11-107.75 155.04-8.1484 3.0195-12.301 12.082-9.2852 20.234 3.0156 8.1484 12.051 12.301 20.199 9.2852 84.844-31.469 128.32-108.41 128.32-184.56 0.003906-76.152-43.477-152.96-128.32-184.44-9.6836-2.7617-16.645 1.9922-20.199 9.1953zm-57.535 17.465v315.77l-101.29-81.395c-0.0625-50.949-0.03125-101.98-0.03125-152.95 33.762-27.152 67.547-54.277 101.32-81.426zm59.039 63.07c-4.6797 7.3203-2.5469 17.051 4.7656 21.742 24.91 15.922 39.977 43.406 39.977 72.969s-15.07 57.078-39.977 73c-7.3125 4.6914-9.4453 14.422-4.7656 21.742 4.6914 7.3125 14.422 9.4453 21.742 4.7656 33.922-21.688 54.488-59.246 54.488-99.508 0-40.266-20.562-77.789-54.488-99.477-7.4375-4.6016-17.414-2.7344-21.742 4.7617zm-254.43 21.832h62.359v145.97h-62.359z"/>
</svg>