<?xml version="1.0" encoding="UTF-8"?>
<!-- Uploaded to: ICON Repo, www.svgrepo.com, Generator: ICON Repo Mixer Tools -->
<svg fill="#000000" width="800px" height="800px" version="1.1" viewBox="144 144 512 512" xmlns="http://www.w3.org/2000/svg">
 <path d="m320.33 389.61c4.4648 4.4062 6.9727 10.414 6.9727 16.688 0 6.2695-2.5078 12.281-6.9727 16.688l-46.285 46.289c-4.4297 4.4219-10.43 6.9062-16.688 6.9062-6.2617 0-12.262-2.4844-16.691-6.9062l-46.285-46.289c-4.6914-4.3672-7.4023-10.453-7.5156-16.859-0.11328-6.4102 2.3828-12.586 6.9141-17.117s10.711-7.0273 17.117-6.9141 12.492 2.8242 16.859 7.5156c1.75-30.633 11.668-60.234 28.727-85.734 17.062-25.5 40.641-45.965 68.289-59.27 27.645-13.301 58.352-18.957 88.922-16.375 8.4375 0.67578 15.875 5.8008 19.508 13.445s2.9141 16.645-1.8906 23.617c-4.8008 6.9688-12.957 10.844-21.395 10.172-35.016-2.8398-69.602 9.2031-95.281 33.176-25.68 23.969-40.07 57.648-39.645 92.773l11.965-11.809v0.003906c4.4062-4.4648 10.418-6.9727 16.688-6.9727 6.2734 0 12.281 2.5078 16.688 6.9727zm285.28-12.594-46.285-46.289c-4.4297-4.4258-10.43-6.9102-16.688-6.9102s-12.262 2.4844-16.691 6.9102l-46.289 46.289 0.003906-0.003906c-4.6875 4.3672-7.4023 10.453-7.5117 16.863-0.11328 6.4062 2.3789 12.582 6.9102 17.113s10.711 7.0273 17.117 6.9141c6.4062-0.11328 12.492-2.8242 16.859-7.5117l11.965-11.809h0.003906c0.42188 35.125-13.969 68.805-39.648 92.773-25.676 23.973-60.266 36.016-95.281 33.18-8.4375-0.67578-16.594 3.2031-21.395 10.172-4.8047 6.9688-5.5234 15.969-1.8906 23.613 3.6367 7.6445 11.07 12.77 19.508 13.445h13.699c43.898 0.11328 86.172-16.605 118.12-46.711 31.949-30.105 51.148-71.309 53.645-115.14 4.4297 4.4219 10.43 6.9062 16.688 6.9062 6.2617 0 12.262-2.4844 16.691-6.9062 4.3789-4.3281 6.8828-10.199 6.9727-16.355 0.089843-6.1562-2.2461-12.102-6.5-16.551z"/>
</svg>