<!DOCTYPE svg PUBLIC "-//W3C//DTD SVG 1.1//EN" "http://www.w3.org/Graphics/SVG/1.1/DTD/svg11.dtd">
<!-- Uploaded to: ICON Repo, www.svgrepo.com, Transformed by: ICON Repo Mixer Tools -->
<svg fill="#000000" width="800px" height="800px" version="1.1" viewBox="144 144 512 512" xmlns="http://www.w3.org/2000/svg" stroke="#000000" stroke-width="6.144">
<g id="SVGRepo_bgCarrier" stroke-width="0"/>
<g id="SVGRepo_tracerCarrier" stroke-linecap="round" stroke-linejoin="round" stroke="#CCCCCC" stroke-width="3.072"/>
<g id="SVGRepo_iconCarrier"> <g fill-rule="evenodd"> <path d="m412.97 298.17c-1.875-0.74609-4.0156 0.050781-4.9453 1.8438l-24 46.336c-0.63281 1.2188-0.58203 2.6797 0.12891 3.8516 0.71484 1.1719 1.9883 1.8906 3.3594 1.8906h37.906c13.629 0 26.023 9.7812 32.32 21.871 6.2422 11.98 5.3438 26.43-2.3281 37.539-1.9023 2.2539-25.418 29.984-50.203 57.156-11.043 12.105-22.176 23.922-31.34 33.523-1.1055 1.1602-1.3984 2.8711-0.73828 4.332 0.66016 1.457 2.1328 2.375 3.7344 2.3125 58.324-2.2344 104.98-50.281 104.98-109.14 0-46.035-28.543-85.457-68.875-101.52zm0.37109 8.6797c35.688 15.691 60.641 51.371 60.641 92.836 0 51.16-37.98 93.516-87.262 100.38 7.5664-7.9922 15.953-16.973 24.293-26.113 25.941-28.438 50.496-57.484 50.496-57.484 0.078126-0.09375 0.15234-0.1875 0.22266-0.28516 9.4648-13.535 10.613-31.211 2.9805-45.859-7.6133-14.609-22.82-26.098-39.293-26.098h-31.441zm-53.867-8.4492c1.2188-1.1914 1.5273-3.0352 0.76562-4.5625-0.76172-1.5273-2.4219-2.3867-4.1094-2.1289-52.465 7.9609-92.727 53.305-92.727 107.98 0 42.98 24.879 80.195 61.004 98.012 1.9414 0.95703 4.2891 0.16406 5.2578-1.7734l30.598-61.363c0.60938-1.2188 0.54297-2.6641-0.17188-3.8242-0.71875-1.1562-1.9805-1.8633-3.3438-1.8633h-37.961c-13.418 0-25.57-10.168-31.609-22.152-5.9805-11.871-4.8047-26.086 3.0273-36.805 1.6094-1.7852 17.512-19.348 36.41-38.695 11.031-11.293 22.844-23.008 32.859-32.824zm-15.227 3.9609c-7.5547 7.4766-15.59 15.527-23.254 23.371-20.043 20.52-36.734 39.035-36.734 39.035-0.082031 0.09375-0.16406 0.19141-0.23828 0.29297-9.7227 13.129-11.219 30.617-3.8672 45.207 7.3281 14.539 22.348 26.477 38.629 26.477h31.605l-25.98 52.105c-31.637-17.156-53.141-50.668-53.141-89.16 0-46.098 30.84-85.051 72.992-97.328l-0.011718 0.003906z"/> <path d="m474.46 540.3c1.207-0.875 1.8125-2.3516 1.5703-3.8203-0.61328-3.7383-0.93359-7.5742-0.93359-11.484 0-38.852 31.543-70.395 70.395-70.395 6.3711 0 12.547 0.84766 18.418 2.4375 2.082 0.5625 4.2305-0.65625 4.8125-2.7344l0.64063-2.5586c1.0273-10.312-0.96484-18.324-5.5938-24.121-4.0312-5.0508-10.137-8.5234-18.438-10.188 1.2148-11.801 1.2148-23.699 0-35.504 8.3008-1.6602 14.41-5.1367 18.438-10.184 4.6289-5.7969 6.625-13.809 5.5938-24.125-0.019532-0.21094-0.058594-0.42188-0.11328-0.625-9.2461-34.516-27.418-65.988-52.688-91.258-0.15234-0.15234-0.3125-0.28906-0.48828-0.41406-8.418-6.0469-16.352-8.3242-23.688-7.2188-6.3867 0.96484-12.449 4.5195-18.039 10.879-9.6172-6.9531-19.922-12.902-30.75-17.754 2.7109-8.0195 2.7578-15.047 0.39844-21.059-2.707-6.9062-8.6484-12.641-18.094-16.906-0.19531-0.089844-0.39453-0.16016-0.60156-0.21484-34.516-9.2461-70.859-9.2461-105.38 0-0.20703 0.054687-0.40625 0.125-0.60156 0.21484-9.4453 4.2656-15.387 10-18.094 16.906-2.3555 6.0117-2.3125 13.039 0.39844 21.062-10.828 4.8477-21.133 10.801-30.75 17.754-5.5898-6.3594-11.652-9.9102-18.039-10.879-7.3359-1.1094-15.27 1.168-23.688 7.2188-0.17188 0.125-0.33594 0.26172-0.48828 0.41406-25.266 25.27-43.438 56.738-52.688 91.258-0.054688 0.20703-0.09375 0.41406-0.11328 0.625-1.0273 10.312 0.96875 18.324 5.5938 24.125 4.0312 5.0469 10.137 8.5234 18.441 10.184-1.2148 11.805-1.2148 23.703 0 35.508-8.3008 1.6602-14.41 5.1328-18.438 10.184-4.625 5.7969-6.6211 13.809-5.5938 24.121 0.019531 0.21484 0.058594 0.42188 0.11328 0.62891 9.2461 34.516 27.422 65.988 52.688 91.258 0.15234 0.15234 0.3125 0.28906 0.48828 0.41406 8.418 6.0469 16.352 8.3242 23.688 7.2148 6.3867-0.96484 12.449-4.5156 18.039-10.875 9.6133 6.9531 19.918 12.902 30.746 17.754-2.7109 8.0156-2.7578 15.043-0.39844 21.059 2.707 6.9062 8.6484 12.641 18.094 16.906 0.19531 0.085938 0.39453 0.16016 0.60156 0.21484 34.516 9.2461 70.859 9.2461 105.38 0 0.20703-0.054687 0.40625-0.12891 0.60156-0.21484 9.4453-4.2656 15.387-10 18.094-16.906 2.3555-6.0117 2.3125-13.043-0.39844-21.062 10.871-4.8672 21.211-10.844 30.859-17.832zm87.27-91.871c-5.2383-1.1094-10.672-1.6914-16.238-1.6914-43.191 0-78.258 35.066-78.258 78.258 0 3.5 0.23047 6.9453 0.67578 10.32-9.6406 6.7734-19.98 12.5-30.844 17.086-2 0.84375-2.9375 3.1523-2.0938 5.1523 3.0664 7.2695 3.7695 13.516 1.707 18.77-2.0312 5.1836-6.6836 9.2461-13.703 12.473-32.992 8.7852-67.688 8.7891-100.66 0.019531-7.0664-3.2383-11.727-7.3047-13.758-12.492-2.0625-5.2578-1.3594-11.504 1.707-18.77 0.84375-2-0.09375-4.3047-2.0938-5.1523-12.668-5.3438-24.621-12.246-35.586-20.547-1.7305-1.3086-4.1953-0.96875-5.5078 0.76172-4.7617 6.2891-9.8203 10.02-15.406 10.863-5.5039 0.83203-11.352-1.168-17.652-5.6328-24.105-24.176-41.453-54.223-50.344-87.164-0.73047-7.7383 0.46094-13.809 3.9375-18.16 3.5234-4.4141 9.2852-6.9297 17.109-7.9062 2.1562-0.26953 3.6836-2.2344 3.4141-4.3906-1.7031-13.645-1.7031-27.445 0-41.094 0.26953-2.1523-1.2578-4.1172-3.4141-4.3867-7.8281-0.97656-13.586-3.4922-17.109-7.9062-3.4727-4.3516-4.6641-10.41-3.9492-18.102 8.8867-32.961 26.23-63.012 50.316-87.184 6.3359-4.5039 12.188-6.5039 17.695-5.6719 5.5859 0.84375 10.645 4.5742 15.406 10.863 1.3086 1.7305 3.7773 2.0742 5.5078 0.76172 10.965-8.2969 22.918-15.199 35.586-20.547 2-0.84375 2.9375-3.1484 2.0938-5.1484-3.0664-7.2695-3.7695-13.516-1.707-18.773 2.0312-5.1797 6.6836-9.2461 13.703-12.469 32.988-8.7852 67.684-8.7891 100.66-0.019531 7.0703 3.2383 11.727 7.3008 13.762 12.488 2.0586 5.2578 1.3594 11.504-1.707 18.773-0.84375 2 0.09375 4.3047 2.0938 5.1484 12.668 5.3477 24.621 12.25 35.586 20.547 1.7305 1.3125 4.1953 0.96875 5.5078-0.76172 4.7617-6.2891 9.8203-10.02 15.402-10.863 5.5039-0.83203 11.352 1.168 17.652 5.6328 24.105 24.18 41.453 54.223 50.348 87.164 0.73047 7.7383-0.46094 13.809-3.9375 18.16-3.5234 4.4141-9.2812 6.9297-17.109 7.9062-2.1562 0.26953-3.6797 2.2344-3.4141 4.3867 1.7031 13.645 1.7031 27.449 0 41.094-0.26953 2.1562 1.2578 4.1211 3.4141 4.3906 7.8281 0.97656 13.586 3.4922 17.109 7.9062 3.1367 3.9297 4.4102 9.25 4.1055 15.906z"/> <path d="m350.39 436.74-32.238 64.652c-7.5469 11.078-4.793 26.223 6.2266 33.93 11.016 7.7031 26.18 5.0898 33.996-5.793 2.5977-2.6367 27.836-28.379 52.641-55.57 25.941-28.438 50.496-57.484 50.496-57.484 0.078125-0.09375 0.15234-0.1875 0.22266-0.28516 9.4648-13.535 10.613-31.211 2.9805-45.859-7.6133-14.609-22.82-26.098-39.293-26.098h-31.441s23.684-45.723 23.684-45.723c7.8281-10.867 5.4844-26.07-5.3125-34.066-10.801-7.9961-26.023-5.8047-34.137 4.8594-2.8789 2.7461-32.07 30.684-57.223 56.43-20.043 20.52-36.734 39.035-36.734 39.035-0.082031 0.09375-0.16406 0.19141-0.23828 0.29297-9.7227 13.129-11.219 30.617-3.8672 45.207 7.3281 14.539 22.348 26.477 38.629 26.477h31.605zm9.8711-2.1758c0.60938-1.2188 0.54297-2.6641-0.17188-3.8242-0.71875-1.1562-1.9805-1.8633-3.3438-1.8633h-37.961c-13.418 0-25.57-10.168-31.609-22.152-5.9805-11.871-4.8047-26.086 3.0273-36.805 1.6094-1.7852 17.512-19.348 36.41-38.695 26.402-27.023 57.277-56.48 57.277-56.48 0.16406-0.15625 0.3125-0.32422 0.44531-0.50391 5.4805-7.4023 15.934-8.9609 23.332-3.4805 7.4023 5.4766 8.9609 15.934 3.4805 23.332-0.12109 0.16797-0.23438 0.34375-0.33203 0.53125l-26.793 51.727c-0.63281 1.2188-0.58203 2.6797 0.12891 3.8516 0.71484 1.1719 1.9883 1.8906 3.3594 1.8906h37.906c13.629 0 26.023 9.7812 32.32 21.871 6.2422 11.98 5.3438 26.43-2.3281 37.539-1.9023 2.2539-25.418 29.984-50.203 57.156-26.098 28.605-52.672 55.602-52.672 55.602-0.15625 0.15625-0.29297 0.32813-0.42188 0.50391-5.2773 7.5469-15.684 9.3906-23.23 4.1133-7.5469-5.2773-9.3906-15.684-4.1133-23.23 0.10938-0.16016 0.21094-0.32812 0.29688-0.5l35.195-70.586z"/> <path d="m545.5 446.74c-43.191 0-78.258 35.066-78.258 78.258s35.066 78.258 78.258 78.258 78.258-35.066 78.258-78.258-35.066-78.258-78.258-78.258zm0 7.8633c38.852 0 70.395 31.543 70.395 70.395 0 38.852-31.543 70.395-70.395 70.395s-70.395-31.543-70.395-70.395c0-38.852 31.543-70.395 70.395-70.395z"/> <path d="m504.05 540.09 17.57 17.57c6.543 6.543 17.148 6.543 23.691 0l41.633-41.633c6.5391-6.5391 6.5391-17.152 0-23.691-6.5391-6.5391-17.152-6.5391-23.691 0l-29.785 29.785-5.7227-5.7227c-6.5391-6.5391-17.152-6.5391-23.691 0-6.5391 6.5391-6.5391 17.152 0 23.691zm5.5625-5.5586c-3.4688-3.4688-3.4688-9.1055 0-12.574s9.1016-3.4688 12.574 0l8.5039 8.5039c0.73438 0.73828 1.7344 1.1523 2.7812 1.1523 1.043 0 2.043-0.41406 2.7812-1.1523l32.566-32.566c3.4688-3.4688 9.1016-3.4688 12.574 0 3.4688 3.4688 3.4688 9.1055 0 12.574l-41.633 41.633c-3.4727 3.4727-9.1016 3.4727-12.574 0l-17.57-17.57z"/> </g> </g>
</svg>