<?xml version="1.0" encoding="UTF-8"?>
<!-- Uploaded to: ICON Repo, www.svgrepo.com, Generator: ICON Repo Mixer Tools -->
<svg fill="#000000" width="800px" height="800px" version="1.1" viewBox="144 144 512 512" xmlns="http://www.w3.org/2000/svg">
 <g>
  <path d="m278.88 493.47c-8.9922 0-16.121-6.3086-21.195-10.805-2.8867-2.5586-6.8281-6.0469-8.8164-6.0859-1.9648 0-5.9219 2.9609-9.0938 5.3789-7.4961 5.707-17.746 13.516-31.477 8.5781-1.5977-0.58203-2.9961-1.6016-4.0312-2.9492-8.1094-10.641-3.6523-22.277-0.38672-30.77 1.6367-4.2539 3.4883-9.0781 2.7812-11.523-0.65625-2.3164-4.3203-5.1367-7.8594-7.8711-7.3164-5.6406-17.344-13.375-17.117-28.086 0.027344-1.6016 0.48047-3.1484 1.3242-4.5117 7.3047-11.773 20.039-10.844 28.453-10.238 4.1289 0.30469 8.8164 0.64453 10.488-0.58984 1.8164-1.3359 3.3281-6.1484 4.6484-10.391 2.8477-9.0938 6.7266-21.551 20.367-26.012 1.6602-0.53906 3.4609-0.57812 5.1523-0.097656 12.895 3.6758 15.781 15.98 17.895 24.961 0.98438 4.1953 2.2188 9.4102 3.9922 10.832 1.6133 1.2969 6.2344 1.3086 10.316 1.3086 8.7148 0.027344 21.879 0.050782 30.078 12.383 0.87891 1.3359 1.3984 2.8828 1.4727 4.4844 0.62891 13.641-9.5703 20.379-17.027 25.289-3.793 2.4961-7.7109 5.0898-8.4648 7.3945-0.79297 2.3789 0.62891 7.0391 1.9883 11.547 2.7344 9.0195 6.4883 21.375-1.875 33.141-0.98438 1.3711-2.332 2.4414-3.8906 3.0703-2.7227 1.0977-5.3047 1.5625-7.7461 1.5625zm-30.051-34.523h0.41406c8.4648 0.17578 14.676 5.668 20.141 10.52 3.9805 3.5234 6.4102 5.4531 8.25 6.082 1.0586-3.8281-0.1875-8.3906-2.1016-14.723-2.0664-6.8047-4.4102-14.512-1.8672-22.207 2.6836-8.1211 9.4961-12.605 15.504-16.574 5.0898-3.3516 7.6836-5.3516 8.668-7.4062-2.707-2.1016-6.6875-2.3789-13.516-2.4062-6.9648-0.011719-14.863-0.035157-21.285-5.1758-6.5352-5.2266-8.4531-13.375-10.152-20.566-1.2461-5.3008-2.1914-8.5898-3.4375-10.391-2.4688 2.2539-3.9688 6.2852-5.9844 12.746-2.1406 6.8398-4.5586 14.586-11.043 19.344-6.9141 5.0781-15.406 4.4609-22.219 3.9688-5.6797-0.41406-8.7031-0.44141-10.504 0.41406 1.082 3.8945 4.5469 6.7539 9.8867 10.871 5.5312 4.2695 11.801 9.1055 14.055 16.992 2.3203 8.1094-0.65234 15.855-3.2852 22.68-2.0547 5.3555-3.2109 8.8047-2.9844 11.273 3.1211-0.19922 6.4336-2.4414 11.738-6.4727 5.543-4.2188 11.801-8.9922 19.734-8.9922z"/>
  <path d="m385.67 623.91c-8.5781 0-15.293-5.5781-20.453-9.875-2.7617-2.293-6.1875-5.1523-8-5.3281-1.5-0.15234-4.4961 1.7148-7.1523 3.3633-6.2969 3.9062-15.832 9.8008-28.074 4.332-1.5508-0.69141-2.8711-1.8242-3.793-3.25-6.5352-10.074-2.7188-20.805 0.0625-28.641 1.3633-3.8281 2.9102-8.1719 2.4453-10.441-0.37891-1.8633-2.6836-4.0273-5.3516-6.5352-5.3047-4.9766-13.312-12.496-12.078-25.906 0.13672-1.5898 0.71484-3.1133 1.6602-4.3984 7.3164-10.023 18.453-9.5977 26.59-9.293 3.6875 0.13672 7.8711 0.30078 9.5078-0.71875 1.4844-0.93359 2.8984-4.2695 4.2422-7.4805 2.8984-6.9023 7.293-17.344 20.09-20.469 1.7031-0.41406 3.4883-0.3125 5.1406 0.28906 11.309 4.1562 14.219 15.293 16.336 23.43 0.95703 3.6758 2.1523 8.2617 3.6758 9.6719 1.1602 1.082 4.2812 1.3867 7.5938 1.7266 7.2422 0.71484 18.176 1.8125 24.84 13.652 0.78125 1.3984 1.1836 2.9844 1.1328 4.582-0.36719 12.23-9.4961 18.668-16.16 23.367-3.3242 2.3398-6.7773 4.7734-7.6328 6.8242-0.76562 1.8516-0.074219 5.2891 0.65625 8.918 1.4609 7.2539 3.6758 18.211-4.7734 28.387-1.082 1.3008-2.5078 2.2578-4.1172 2.7734-2.2422 0.70312-4.3594 1.0195-6.3867 1.0195zm-28.629-32.836c0.61719 0 1.2344 0.027344 1.8633 0.089844 7.2305 0.69141 12.734 5.2773 17.598 9.3203 3.2969 2.7461 5.7773 4.7227 7.7812 5.4414 0.84375-2.5703 0.40234-5.6562-0.61719-10.707-1.1719-5.793-2.4922-12.355 0.35156-19.184 2.8086-6.7617 8.6172-10.855 13.742-14.457 4.2812-3.0234 6.9141-5.0508 8.0469-7.1406-1.8633-1.5898-4.5312-2.0156-9.4453-2.5078-5.5039-0.55469-12.344-1.2344-17.859-6.3594-5.2656-4.9141-7.1016-11.93-8.7148-18.125-1.1211-4.2695-2.0547-7.5586-3.3242-9.5078-1.7891 1.5352-3.0508 4.168-4.9258 8.6523-2.1914 5.2148-4.9258 11.711-11.16 15.605-6.2344 3.8906-13.285 3.6133-19.52 3.3867-4.8359-0.1875-7.9219-0.17578-9.875 0.66797 0.60547 2.7188 2.6211 4.8594 6.4492 8.4492 4.0273 3.793 9.0547 8.5039 10.566 15.848 1.4609 7.0898-0.96875 13.902-3.0977 19.91-1.6367 4.6094-2.7578 8.0234-2.6445 10.543 2.0625-0.089844 4.3945-1.3086 8.5508-3.8906 4.3594-2.6953 9.6992-6.0078 16.258-6.0078z"/>
  <path d="m425.17 410.41c-3.0234 0-5.9688-1.5508-7.6055-4.3477-2.4688-4.1914-1.0703-9.5977 3.1211-12.062l83.695-49.234c4.1914-2.4688 9.5977-1.0703 12.066 3.1211 2.4688 4.1953 1.0703 9.5977-3.125 12.066l-83.691 49.234c-1.3984 0.83203-2.9492 1.2227-4.4609 1.2227z"/>
  <path d="m320.82 446.15c-3.7539 0-7.2422-2.418-8.4141-6.1953-1.4453-4.6484 1.1484-9.5977 5.793-11.047l40.645-12.672c4.6484-1.4453 9.5977 1.1484 11.047 5.7969s-1.1445 9.5977-5.793 11.043l-40.645 12.672c-0.86719 0.27734-1.7617 0.40234-2.6328 0.40234z"/>
  <path d="m509.69 558.32c-2.6445 0-5.25-1.1836-6.9883-3.4375l-68.793-89.438c-2.9727-3.8555-2.2422-9.3945 1.6133-12.367 3.8516-2.9609 9.3945-2.2422 12.367 1.6094l68.793 89.438c2.9727 3.8555 2.2422 9.3945-1.6133 12.367-1.5977 1.2344-3.4883 1.8281-5.3633 1.8281z"/>
  <path d="m384.93 496.75c-0.44141 0-0.88281-0.035156-1.3359-0.097656-4.8125-0.73047-8.125-5.2266-7.3945-10.039l7.7852-51.16c0.73047-4.8125 5.2266-8.125 10.039-7.3945s8.1211 5.2266 7.3906 10.039l-7.7812 51.16c-0.66797 4.3594-4.4219 7.4922-8.7031 7.4922z"/>
  <path d="m385.76 402.11c-4.2461 0-7.9883-3.0742-8.6914-7.3945l-11.133-68.062c-0.78125-4.8125 2.4648-9.332 7.2773-10.125 4.8008-0.78125 9.332 2.4688 10.129 7.2773l11.133 68.062c0.78125 4.8125-2.4688 9.3359-7.2812 10.129-0.47656 0.074218-0.95703 0.11328-1.4336 0.11328z"/>
  <path d="m407.91 396.44c-1.4102 0-2.832-0.33984-4.1562-1.0469-4.293-2.3047-5.9062-7.6445-3.6016-11.938l39.711-74.059c2.3047-4.2969 7.6445-5.9062 11.941-3.6016 4.293 2.3047 5.9062 7.6445 3.6016 11.938l-39.711 74.059c-1.5859 2.9609-4.6367 4.6484-7.7852 4.6484z"/>
  <path d="m468.54 614.62c-3.5859 0-6.9648-2.2031-8.2734-5.7656l-52.848-143.57c-1.6875-4.5703 0.65625-9.6367 5.2266-11.324 4.5703-1.6719 9.6367 0.65625 11.324 5.2266l52.848 143.57c1.6875 4.5742-0.65625 9.6367-5.2266 11.324-1.0078 0.36328-2.0273 0.53906-3.0508 0.53906z"/>
  <path d="m480 450.95c-0.88281 0-1.7891-0.14062-2.6719-0.41797l-60.633-19.242c-4.6328-1.4766-7.2031-6.4375-5.7305-11.074 1.4766-4.6328 6.4375-7.2031 11.07-5.7305l60.633 19.246c4.6367 1.4727 7.207 6.4375 5.7305 11.07-1.1953 3.7539-4.6602 6.1484-8.3984 6.1484z"/>
  <path d="m256.89 557.59c-2.2773 0-4.5586-0.88281-6.2852-2.6328-3.4102-3.4648-3.375-9.0547 0.10156-12.469l103.67-102.07c3.4648-3.4141 9.0586-3.375 12.469 0.10156 3.4141 3.4648 3.3789 9.0547-0.097656 12.469l-103.67 102.07c-1.7109 1.6914-3.9531 2.5352-6.1836 2.5352z"/>
  <path d="m366.05 411.95c-2.0508 0-4.1055-0.70312-5.7812-2.1641l-115.34-100.21c-3.6758-3.1992-4.0664-8.7656-0.86719-12.445 3.1992-3.6758 8.7656-4.0664 12.441-0.86719l115.34 100.21c3.6797 3.1992 4.0703 8.7656 0.87109 12.441-1.7383 2.0039-4.1953 3.0352-6.6641 3.0352z"/>
  <path d="m568.59 523.21c-12.18 0-18.738-10.203-23.602-17.746-2.2031-3.4141-5.2148-8.1016-7.1016-8.7305-1.5625-0.51562-5.8828 1.3242-9.0469 2.6719-7.8594 3.3633-19.734 8.4375-31.422-0.37891-1.3594-1.0195-2.3945-2.418-2.9727-4.0195-4.4844-12.305 3.2227-22.617 8.8555-30.137 2.8828-3.8555 6.1562-8.2266 6.207-10.758 0.050782-2.0781-2.543-5.3633-5.0391-8.5391-5.1641-6.5508-12.973-16.461-8.375-30.453 0.49219-1.5234 1.3984-2.8711 2.6094-3.918 10.238-8.8789 22.129-4.5977 30.805-1.4727 3.9297 1.4102 8.8164 3.1719 10.781 2.4922 1.8398-0.62891 4.3594-4.7227 6.3867-8.0117 4.5234-7.3398 11.359-18.426 25.746-18.625 1.75-0.078125 3.4727 0.47656 4.9492 1.4336 10.98 7.1797 10.391 20.215 9.9609 29.727-0.1875 4.293-0.45312 10.176 0.82031 12.066 0.96875 1.4336 5.0234 2.4531 8.5898 3.3477 8.1094 2.043 20.375 5.1406 24.57 19.383 0.45312 1.5391 0.48047 3.1758 0.074218 4.7227-3.3711 12.926-15.402 16.766-24.18 19.574-4.3711 1.3984-9.3203 2.9727-10.73 4.9492-1.2852 1.7891-1.0859 6.2109-0.88281 10.492 0.40234 9.0039 0.95703 21.336-10.527 30.09-1.3359 1.0195-2.9492 1.6367-4.625 1.7734-0.62891 0.050781-1.2461 0.078125-1.8359 0.078125zm-31.285-44.195c2.0156 0 4.0703 0.28906 6.1602 0.98047 7.7695 2.5938 12.328 9.6719 16.348 15.906 2.6562 4.1445 4.875 7.4062 6.8789 8.8438 1.5234-2.6719 1.5703-6.3867 1.2812-12.695-0.3125-6.9414-0.66797-14.801 4.1562-21.539 4.8125-6.7266 12.723-9.2578 19.699-11.484 5.4922-1.7539 9.3711-3.125 11.285-5.1406-1.625-2.0664-4.6094-3.125-10.68-4.6484-6.3086-1.5859-14.156-3.5625-18.895-10.578-4.5469-6.7266-4.1562-15.227-3.8281-22.734 0.22656-5.1367 0.32812-9.2812-0.46484-11.84-2.4297 1.375-4.5078 4.3984-7.5703 9.3594-3.6758 5.9688-7.8594 12.734-15.641 15.414-7.8477 2.7109-15.633-0.097657-22.508-2.582-5.5547-2-8.9414-3.0078-11.184-2.6914 0.035156 3.1328 2.0273 6.0195 5.9805 11.043 4.0195 5.1016 9.0195 11.449 8.8164 19.863-0.1875 8.1602-5.25 14.938-9.7227 20.906-3.3867 4.5352-5.8828 8.0508-6.5 10.82 2.3672 0.36328 5.418-0.66797 10.984-3.0469 4.4688-1.918 9.7617-4.1836 15.402-4.1836z"/>
  <path d="m552.27 342.07c-8.5781 0-15.293-5.582-20.457-9.875-2.7578-2.293-6.1836-5.1523-7.9961-5.3281-1.5-0.11328-4.4961 1.7109-7.1562 3.3633-6.2969 3.9023-15.832 9.7969-28.074 4.332-1.5469-0.69141-2.8711-1.8281-3.7891-3.25-6.5391-10.074-2.7227-20.805 0.0625-28.641 1.3594-3.8281 2.9102-8.1758 2.4453-10.441-0.37891-1.8633-2.6836-4.0312-5.3555-6.5352-5.3008-4.9766-13.312-12.496-12.09-25.91 0.13672-1.5859 0.71875-3.1094 1.6641-4.3945 7.3164-10.023 18.449-9.5977 26.586-9.2969 3.6914 0.14062 7.8711 0.30469 9.5078-0.71484 1.4883-0.93359 2.8984-4.2695 4.2461-7.4844 2.8945-6.8984 7.293-17.34 20.09-20.465 1.6992-0.41406 3.4883-0.31641 5.1367 0.28906 11.312 4.1562 14.219 15.289 16.336 23.426 0.95703 3.6797 2.1523 8.2617 3.6797 9.6758 1.1562 1.082 4.2812 1.3828 7.5938 1.7227 7.2422 0.71875 18.172 1.8164 24.836 13.656 0.79297 1.3945 1.1836 2.9844 1.1328 4.582-0.36328 12.23-9.4961 18.668-16.16 23.363-3.3242 2.3438-6.7734 4.7734-7.6289 6.8281-0.76953 1.8516-0.078125 5.2891 0.65234 8.918 1.4609 7.2539 3.6797 18.223-4.7734 28.387-1.082 1.2969-2.5039 2.2539-4.1172 2.7695-2.2422 0.70703-4.3594 1.0234-6.3867 1.0234zm-28.629-32.836c0.61719 0 1.2344 0.023437 1.8633 0.089843 7.2305 0.69141 12.734 5.2734 17.594 9.3164 3.3008 2.7461 5.7812 4.7227 7.7852 5.4414 0.84375-2.5664 0.40234-5.6523-0.61719-10.703-1.1719-5.793-2.4961-12.355 0.35156-19.184 2.8086-6.7617 8.6172-10.855 13.742-14.457 4.2812-3.0234 6.9141-5.0508 8.0469-7.1445-1.8633-1.5859-4.5352-2.0156-9.4453-2.5039-5.5039-0.55469-12.344-1.2344-17.859-6.3633-5.2656-4.9102-7.1055-11.926-8.7148-18.121-1.1211-4.2695-2.0547-7.5586-3.3281-9.5234-1.7852 1.5352-3.0469 4.168-4.9219 8.6523-2.1914 5.2148-4.9258 11.715-11.16 15.605-6.2344 3.8945-13.301 3.6133-19.523 3.3867-4.8359-0.1875-7.9219-0.17578-9.8711 0.66797 0.60156 2.7227 2.6172 4.8633 6.4453 8.4531 4.0312 3.7891 9.0586 8.5 10.566 15.844 1.4609 7.0898-0.96875 13.906-3.0977 19.914-1.6367 4.6094-2.7578 8.0234-2.6445 10.539 2.0664-0.085937 4.3984-1.3086 8.5547-3.8906 4.3555-2.6953 9.6953-6.0078 16.258-6.0078z"/>
  <path d="m401.73 312.4c-8.9922 0-16.121-6.3086-21.199-10.805-2.8828-2.5586-6.8242-6.0469-8.8164-6.082-1.9258-0.027344-5.918 2.9727-9.0938 5.375-7.4922 5.707-17.746 13.516-31.473 8.5781-1.6016-0.57812-3-1.5977-4.0312-2.9453-8.1094-10.645-3.6523-22.281-0.39063-30.77 1.6367-4.2578 3.4883-9.082 2.7852-11.539-0.65625-2.3164-4.3203-5.1367-7.875-7.8711-7.3164-5.6406-17.34-13.375-17.113-28.086 0.023437-1.5977 0.47656-3.1484 1.3203-4.5078 7.3047-11.777 20.039-10.844 28.453-10.242 4.1289 0.30469 8.8164 0.64453 10.492-0.58984 1.8125-1.3359 3.3242-6.1484 4.6445-10.391 2.8477-9.0938 6.7266-21.551 20.367-26.008 1.6641-0.54297 3.4648-0.58203 5.1523-0.10156 12.895 3.6758 15.781 15.98 17.898 24.961 0.98047 4.1953 2.2148 9.4102 3.9922 10.832 1.6094 1.2969 6.2344 1.3125 10.312 1.3125 8.7188 0.023437 21.879 0.046874 30.078 12.379 0.88281 1.3359 1.3984 2.8828 1.4727 4.4844 0.62891 13.641-9.5703 20.379-17.027 25.289-3.7891 2.4961-7.707 5.0898-8.4648 7.3945-0.79297 2.3789 0.62891 7.0391 1.9922 11.551 2.7305 9.0156 6.4844 21.371-1.8789 33.137-0.98047 1.3711-2.3281 2.4414-3.8906 3.0703-2.7188 1.0977-5.3008 1.5625-7.7461 1.5625zm-30.055-34.52h0.41797c8.4648 0.17578 14.672 5.668 20.141 10.516 3.9766 3.5273 6.4102 5.4531 8.2461 6.082 1.0586-3.8281-0.1875-8.3867-2.1016-14.723-2.0664-6.8008-4.4062-14.508-1.8633-22.203 2.6836-8.125 9.4961-12.609 15.504-16.574 5.0898-3.3516 7.6836-5.3555 8.6641-7.4062-2.707-2.1055-6.6875-2.3828-13.512-2.4062-6.9688-0.011719-14.863-0.039063-21.285-5.1758-6.5391-5.2266-8.4531-13.379-10.141-20.57-1.2461-5.3008-2.1914-8.5898-3.4375-10.391-2.4688 2.2539-3.9688 6.2852-5.9844 12.746-2.1406 6.8398-4.5586 14.586-11.047 19.348-6.9141 5.0742-15.402 4.457-22.215 3.9531-5.6797-0.41406-8.7031-0.44141-10.504 0.41797 1.082 3.8906 4.5469 6.75 9.8867 10.867 5.5273 4.2695 11.801 9.1055 14.055 16.992 2.3164 8.1094-0.65234 15.855-3.2852 22.695-2.0547 5.3516-3.2148 8.8047-2.9883 11.273 3.125-0.20312 6.4375-2.4453 11.742-6.4766 5.5391-4.2188 11.801-8.9922 19.734-8.9922z"/>
 </g>
</svg>