<?xml version="1.0" encoding="UTF-8"?>
<!-- Uploaded to: ICON Repo, www.svgrepo.com, Generator: ICON Repo Mixer Tools -->
<svg fill="#000000" width="800px" height="800px" version="1.1" viewBox="144 144 512 512" xmlns="http://www.w3.org/2000/svg">
 <path d="m399.24 169.09c-16.973 0.41406-30.734 14.508-30.727 31.488 0 13.582 8.8516 25.168 21.012 29.539v44.488c-26.863 2.2227-51.32 12.883-70.766 29.355l-16.648-16.668c5.5039-11.688 3.5742-26.129-6.0273-35.73-5.8008-5.8086-13.645-9.1211-21.852-9.2266h-0.019531c-8.4844-0.10547-16.656 3.2227-22.652 9.2266-12.207 12.207-12.207 32.316 0 44.523 9.6016 9.6016 24.043 11.531 35.73 6.0273l16.668 16.648c-16.473 19.445-27.133 43.902-29.355 70.766h-44.488c-4.3711-12.16-15.957-21.012-29.539-21.012-0.21484-0.003907-0.42188-0.003907-0.63672 0h-0.12109c-16.977 0.41406-30.734 14.508-30.73 31.488 0 17.266 14.223 31.488 31.488 31.488 13.566 0 25.133-8.8359 29.52-20.973h44.508c2.2344 26.828 12.883 51.285 29.332 70.727l-16.602 16.602c-4.0742-1.9414-8.5078-3.0977-13.102-3.1562h-0.019531c-8.4844-0.10547-16.656 3.2227-22.652 9.2266-12.207 12.207-12.207 32.316 0 44.527 12.207 12.203 32.316 12.203 44.523 0 9.5977-9.6016 11.52-24.027 6.0273-35.715l16.648-16.645c19.441 16.484 43.91 27.129 70.766 29.355v44.445c-12.16 4.375-21.012 15.957-21.012 29.539 0 17.266 14.223 31.488 31.488 31.488s31.488-14.223 31.488-31.488c0-13.566-8.8359-25.133-20.973-29.52v-44.465c26.844-2.25 51.164-13.023 70.48-29.582l16.891 16.871c-5.4922 11.688-3.5703 26.113 6.0273 35.715 12.207 12.203 32.316 12.203 44.527 0 12.203-12.211 12.203-32.32 0-44.527-6-6.0039-14.168-9.332-22.656-9.2266h-0.019531c-4.5859 0.0625-9.0117 1.2188-13.078 3.1562l-16.852-16.891c16.195-19.398 26.566-43.777 28.824-70.438h45.242c4.3867 12.137 15.953 20.973 29.52 20.973 17.266 0 31.488-14.223 31.488-31.488s-14.223-31.488-31.488-31.488c-0.21484-0.003907-0.41797-0.003907-0.63281 0h-0.125c-13.301 0.32422-24.523 9.082-28.801 21.012h-45.203c-2.2461-26.695-12.625-51.098-28.844-70.5l16.91-16.914c11.688 5.4922 26.113 3.5703 35.715-6.0273 12.203-12.207 12.203-32.316 0-44.523-6-6.0039-14.168-9.332-22.656-9.2266h-0.019531c-8.207 0.10547-16.051 3.418-21.852 9.2266-9.6016 9.6016-11.531 24.043-6.0273 35.73l-16.871 16.871c-19.32-16.551-43.645-27.312-70.5-29.559v-44.508c12.137-4.3867 20.973-15.953 20.973-29.52 0-17.266-14.223-31.488-31.488-31.488-0.21484 0-0.42188-0.003907-0.63672 0h-0.125zm-31.488 146.95h0.125c0.21484-0.003906 0.42188-0.003906 0.63672 0 17.266 0 31.488 14.223 31.488 31.488s-14.223 31.488-31.488 31.488-31.488-14.223-31.488-31.488c-0.007813-16.98 13.754-31.074 30.727-31.488zm0.49219 20.992c-5.8086 0.14062-10.23 4.6797-10.227 10.496 0 5.9219 4.5742 10.496 10.496 10.496 5.918 0 10.496-4.5742 10.496-10.496s-4.5781-10.496-10.496-10.496h-0.125-0.14453zm83.477 20.992h0.125c0.21484-0.003906 0.42188-0.003906 0.63672 0 17.266 0 31.484 14.223 31.484 31.488s-14.219 31.488-31.484 31.488c-17.27 0-31.488-14.223-31.488-31.488-0.007813-16.98 13.754-31.074 30.727-31.488zm0.49219 20.992c-5.8086 0.14063-10.23 4.6797-10.227 10.496 0 5.918 4.5742 10.496 10.496 10.496 5.918 0 10.496-4.5781 10.496-10.496 0-5.9219-4.5781-10.496-10.496-10.496h-0.125-0.14453zm-63.469 41.984h0.125c0.21484-0.003907 0.42187-0.003907 0.63672 0 17.266 0 31.488 14.219 31.488 31.488 0 17.266-14.223 31.484-31.488 31.484s-31.488-14.219-31.488-31.484c-0.007813-16.98 13.754-31.074 30.727-31.488zm0.49219 20.992c-5.8086 0.14062-10.23 4.6797-10.227 10.496 0 5.918 4.5742 10.496 10.496 10.496 5.918 0 10.496-4.5781 10.496-10.496 0-5.9219-4.5781-10.496-10.496-10.496h-0.125c-0.046875-0.003906-0.097656 0-0.14453 0z" fill-rule="evenodd"/>
</svg>