<?xml version="1.0" encoding="UTF-8"?>
<!-- Uploaded to: ICON Repo, www.svgrepo.com, Generator: ICON Repo Mixer Tools -->
<svg fill="#000000" width="800px" height="800px" version="1.1" viewBox="144 144 512 512" xmlns="http://www.w3.org/2000/svg">
 <g fill-rule="evenodd">
  <path d="m465.71 395.89c-0.47266-5.168-3.457-9.7734-7.9883-12.312-4.5273-2.5391-10.016-2.6797-14.668-0.38281 0 0-33.062 16.363-57.371 34.129-12.156 8.8867-22.078 18.434-26.629 26.555-15.273 27.25-5.5469 61.773 21.703 77.043s61.77 5.543 77.039-21.707c4.5508-8.1211 7.5156-21.57 8.75-36.574 2.4609-30.008-0.83594-66.75-0.83594-66.75z"/>
  <path d="m195.32 502.34h39.363c8.6875 0 15.742-7.0547 15.742-15.746s-7.0547-15.742-15.742-15.742h-22.973c3.3398-40.32 19.352-77.066 44.043-106.23l16.219 16.211c6.1406 6.1367 16.113 6.1367 22.262 0 6.1406-6.1484 6.1406-16.125 0-22.266l-16.207-16.215c29.164-24.695 65.91-40.715 106.22-44.043v22.969c0 8.6914 7.0547 15.746 15.746 15.746 8.6875 0 15.742-7.0547 15.742-15.746v-22.969c40.32 3.3359 77.066 19.348 106.23 44.043l-16.211 16.215c-6.1406 6.1406-6.1406 16.117 0 22.266 6.1484 6.1367 16.125 6.1367 22.262 0l16.219-16.211c24.695 29.168 40.715 65.914 44.043 106.23h-22.969c-8.6914 0-15.746 7.0508-15.746 15.742s7.0547 15.746 15.746 15.746h39.359c8.6914 0 15.742-7.0547 15.742-15.746 0-121.65-98.762-220.41-220.41-220.41-121.66 0-220.42 98.762-220.42 220.41 0 8.6914 7.0547 15.746 15.742 15.746z"/>
 </g>
</svg>