<?xml version="1.0" encoding="UTF-8"?>
<!-- Uploaded to: ICON Repo, www.svgrepo.com, Generator: ICON Repo Mixer Tools -->
<svg fill="#000000" width="800px" height="800px" version="1.1" viewBox="144 144 512 512" xmlns="http://www.w3.org/2000/svg">
 <path d="m608.48 563.3c0.003906 13.395-5.0391 26.301-14.117 36.148-9.082 9.8477-21.539 15.914-34.891 16.996-13.352 1.082-26.621-2.8984-37.168-11.156-10.547-8.2578-17.602-20.184-19.758-33.406-2.1523-13.219 0.74609-26.766 8.1289-37.945 7.3789-11.18 18.695-19.172 31.699-22.387l-0.78516-70.184c-13.344-2.0312-25.898-7.6133-36.34-16.168l-119.48 105.66c13.629 21.629 15.41 48.676 4.7383 71.902-10.676 23.23-32.363 39.492-57.652 43.234-25.285 3.7422-50.754-5.543-67.699-24.684-16.941-19.141-23.07-45.547-16.289-70.195 6.7812-24.645 25.555-44.199 49.906-51.98 24.348-7.7773 50.98-2.7305 70.797 13.422l119.25-106.07c-6.9375-11.113-10.848-23.848-11.332-36.941l-180.44-20.895c-6.5234 20.512-22.871 36.402-43.559 42.34-20.691 5.9336-42.977 1.1289-59.379-12.809-16.406-13.934-24.75-35.148-22.238-56.527 2.5156-21.375 15.551-40.078 34.742-49.828 19.188-9.75 41.98-9.2578 60.727 1.3125 18.75 10.574 30.969 29.82 32.555 51.285l180.48 21.367h-0.003906c2.5469-8.8164 6.6797-17.094 12.199-24.426l-73.434-76.527c-13.957 7.8516-30.875 8.375-45.289 1.3984-14.414-6.9727-24.5-20.562-27.004-36.379-2.5039-15.816 2.8945-31.859 14.449-42.945 11.555-11.086 27.805-15.812 43.504-12.656 15.699 3.1602 28.859 13.801 35.23 28.492s5.1484 31.57-3.2734 45.191l73.422 76.527v-0.003906c18.828-12.953 42.504-16.684 64.402-10.145 21.895 6.5352 39.652 22.637 48.297 43.793 8.6445 21.152 7.2422 45.082-3.8125 65.082-11.055 20-30.57 33.918-53.078 37.855l0.78906 70.227c11.82 2.6523 22.391 9.2461 29.969 18.699 7.5781 9.4531 11.719 21.203 11.734 33.32z"/>
</svg>