<?xml version="1.0" encoding="UTF-8"?>
<!-- Uploaded to: ICON Repo, www.svgrepo.com, Generator: ICON Repo Mixer Tools -->
<svg fill="#000000" width="800px" height="800px" version="1.1" viewBox="144 144 512 512" xmlns="http://www.w3.org/2000/svg">
 <path d="m415.28 195.39c-3.5742 0.09375-7.0156 1.4102-9.75 3.7227l-105.78 90.648h-104.48c-8.6133 0.035157-15.684 7.1289-15.684 15.742v0.066406 188.86 0.066406c0 8.6172 7.0703 15.711 15.684 15.742h104.48l105.78 90.648c2.8438 2.3945 6.4375 3.7109 10.152 3.7109 8.6094 0 15.703-7.0586 15.742-15.672v-377.83c-0.011719-8.6211-7.1133-15.715-15.742-15.715-0.13281 0-0.26953 0.003907-0.40234 0.003907zm-15.223 49.879v309.5l-84.254-72.293c-2.8594-2.4219-6.4922-3.7422-10.238-3.7266v-157.5c3.7578-0.003906 7.3906-1.3594 10.238-3.8125zm78.566 75.797c-0.54297 0.003906-1.0859 0.03125-1.6289 0.089844-8.0117 0.79297-14.195 7.6133-14.195 15.668 0 4.2578 1.7305 8.3398 4.7852 11.301l51.906 51.875-51.906 51.906c-2.9297 2.9492-4.582 6.9453-4.582 11.102 0 8.6367 7.1094 15.742 15.742 15.742 4.1914 0 8.2109-1.668 11.164-4.6406l51.816-51.844 51.84 51.844c2.9922 3.457 7.3438 5.4492 11.914 5.4492 8.6367 0 15.742-7.1055 15.742-15.738 0-4.5742-1.9922-8.9258-5.4531-11.914l-51.844-51.906 51.844-51.875c3.0156-2.957 4.7148-7.0039 4.7148-11.23 0-8.6328-7.1055-15.742-15.738-15.742-0.13281 0-0.25781 0.003906-0.38672 0.003906-4.0781 0.12891-7.9453 1.8438-10.793 4.7656l-51.84 51.848-51.816-51.848c-2.9453-3.0781-7.0234-4.832-11.285-4.8555zm-267.53 0.18359h62.98v157.5h-62.98z" fill-rule="evenodd"/>
</svg>